<?xml version="1.0" standalone="no"?>
<!DOCTYPE svg PUBLIC "-//W3C//DTD SVG 20010904//EN"
 "http://www.w3.org/TR/2001/REC-SVG-20010904/DTD/svg10.dtd">
<svg version="1.0" xmlns="http://www.w3.org/2000/svg"
 width="512.000000pt" height="512.000000pt" viewBox="0 0 512.000000 512.000000"
 preserveAspectRatio="xMidYMid meet">

<g transform="translate(0.000000,512.000000) scale(0.100000,-0.100000)"
fill="#000000" stroke="none">
<path d="M2330 5109 c-205 -19 -462 -77 -645 -144 -256 -94 -560 -270 -765
-443 -447 -376 -762 -905 -869 -1464 -42 -222 -54 -352 -48 -553 11 -353 71
-632 204 -950 30 -71 58 -137 63 -145 5 -8 33 -55 61 -105 208 -361 486 -659
824 -881 910 -598 2086 -557 2959 104 130 98 381 349 477 477 212 281 362 591
448 926 125 490 99 1036 -73 1504 -53 143 -183 403 -263 525 -189 288 -456
554 -743 743 -123 80 -382 210 -525 263 -333 122 -752 177 -1105 143z m530
-179 c47 -6 92 -13 99 -16 9 -3 -31 -31 -94 -65 -233 -130 -406 -267 -446
-354 -24 -51 -24 -119 0 -170 10 -24 54 -74 107 -123 84 -79 144 -146 144
-163 0 -4 -129 -7 -287 -6 -235 1 -306 -2 -387 -16 -157 -28 -240 -75 -294
-165 -58 -100 -19 -259 88 -355 83 -75 105 -81 270 -83 179 -1 218 -14 405
-131 191 -121 286 -151 387 -123 51 14 125 73 186 146 60 72 123 104 201 104
44 0 51 -3 51 -19 0 -71 -164 -328 -273 -428 -158 -145 -316 -189 -482 -134
-38 13 -169 70 -290 127 -321 150 -457 183 -615 150 -119 -25 -211 -77 -311
-176 -134 -133 -189 -254 -210 -464 -27 -263 54 -483 219 -592 63 -42 145 -70
317 -109 226 -51 348 -102 438 -185 105 -96 141 -192 182 -490 30 -213 62
-299 141 -374 59 -57 128 -91 245 -120 268 -68 411 -51 523 63 83 85 103 140
201 561 33 143 67 244 112 335 40 82 67 112 146 168 203 143 250 520 79 631
-64 42 -114 50 -226 35 -98 -13 -99 -12 -117 10 -36 44 -12 153 49 220 33 38
43 43 102 51 171 24 433 -41 593 -147 82 -54 118 -97 196 -228 128 -217 270
-324 474 -356 39 -7 74 -13 76 -15 10 -8 -104 -315 -156 -419 -140 -279 -363
-565 -592 -759 -704 -596 -1665 -739 -2509 -373 -277 121 -502 277 -732 507
-173 172 -293 333 -410 545 -43 78 -44 82 -43 167 2 111 20 202 98 475 105
366 115 440 69 531 -53 107 -172 174 -365 206 l-36 6 13 88 c24 163 78 379
118 474 l16 37 47 -21 c65 -29 194 -35 288 -14 143 34 300 133 507 322 123
112 184 184 217 254 23 49 26 67 26 170 0 127 -18 208 -80 375 l-34 90 22 17
c39 31 319 166 422 203 179 66 412 116 640 139 70 7 387 -2 475 -14z m517
-125 c205 -74 442 -203 619 -336 121 -91 319 -282 414 -399 433 -536 614
-1210 509 -1887 l-12 -73 -60 0 c-165 0 -295 97 -413 306 -107 191 -264 308
-509 379 -118 34 -194 45 -322 46 -149 2 -217 -18 -289 -83 -97 -89 -149 -237
-126 -359 13 -73 42 -118 95 -153 53 -34 114 -41 217 -28 78 11 87 10 110 -7
34 -25 46 -80 32 -155 -18 -96 -54 -159 -115 -199 -170 -113 -253 -288 -352
-742 -43 -196 -81 -297 -130 -345 -29 -28 -44 -34 -97 -39 -113 -11 -314 31
-391 82 -73 49 -91 96 -127 327 -38 242 -51 294 -102 399 -97 202 -289 316
-678 402 -80 17 -165 42 -190 54 -96 48 -155 144 -181 289 -14 82 3 253 33
335 60 162 208 293 364 322 114 21 217 -8 484 -136 384 -185 530 -210 730
-126 186 78 381 272 497 496 102 198 92 325 -32 385 -40 19 -58 22 -133 18
-131 -6 -198 -41 -317 -163 -70 -73 -98 -95 -118 -95 -46 0 -118 34 -251 118
-193 122 -310 159 -468 148 -101 -8 -139 4 -180 52 -64 76 -56 139 22 179 74
37 188 48 480 45 160 -1 286 2 318 9 63 13 116 54 132 105 30 90 -22 187 -174
327 -53 49 -96 96 -96 105 0 44 200 195 398 300 104 55 274 130 299 131 7 1
56 -15 110 -34z m-2193 -395 c63 -171 82 -313 51 -387 -18 -42 -68 -98 -185
-206 -255 -236 -436 -321 -590 -277 -66 19 -68 22 -36 87 100 205 269 438 445
613 126 126 256 238 277 239 7 1 23 -30 38 -69z m-936 -1785 c80 -19 157 -58
178 -90 25 -39 14 -105 -66 -394 -39 -141 -74 -263 -77 -271 -10 -30 -70 223
-92 391 -15 113 -26 379 -15 379 5 0 37 -7 72 -15z"/>
</g>
</svg>
