<?xml version="1.0" encoding="UTF-8"?>
<svg xmlns="http://www.w3.org/2000/svg" xmlns:xlink="http://www.w3.org/1999/xlink" width="40px" height="29px" viewBox="0 0 39 29" version="1.1">
<g id="surface1">
<path style=" stroke:none;fill-rule:nonzero;fill:rgb(0%,0%,0%);fill-opacity:1;" d="M 1.242188 0.660156 C 0.710938 1.199219 0.796875 1.707031 1.535156 2.21875 C 2.128906 2.636719 4.285156 2.695312 19.261719 2.695312 C 29.605469 2.695312 36.605469 2.578125 37.050781 2.398438 C 37.878906 2.097656 38.054688 1.257812 37.464844 0.660156 C 36.960938 0.148438 1.742188 0.148438 1.242188 0.660156 Z M 1.242188 0.660156 "/>
<path style=" stroke:none;fill-rule:nonzero;fill:rgb(0%,0%,0%);fill-opacity:1;" d="M 1.714844 12.492188 C 1.0625 12.671875 0.738281 13.691406 1.183594 14.230469 C 1.507812 14.621094 4.136719 14.679688 19.324219 14.679688 C 32.765625 14.679688 37.199219 14.589844 37.464844 14.320312 C 37.996094 13.78125 37.878906 12.941406 37.257812 12.582031 C 36.695312 12.28125 2.835938 12.191406 1.714844 12.492188 Z M 1.714844 12.492188 "/>
<path style=" stroke:none;fill-rule:nonzero;fill:rgb(0%,0%,0%);fill-opacity:1;" d="M 1.359375 25.046875 C 0.796875 25.613281 0.769531 25.792969 1.269531 26.453125 C 1.59375 26.933594 2.953125 26.960938 19.46875 26.902344 C 36.105469 26.8125 37.34375 26.78125 37.640625 26.304688 C 37.878906 25.914062 37.878906 25.613281 37.640625 25.253906 C 37.34375 24.746094 36.105469 24.714844 19.558594 24.625 C 3.722656 24.566406 1.773438 24.625 1.359375 25.046875 Z M 1.359375 25.046875 "/>
</g>
</svg>
