<?xml version="1.0" encoding="utf-8"?>
<!-- Generator: Adobe Illustrator 19.0.1, SVG Export Plug-In . SVG Version: 6.00 Build 0)  -->
<svg version="1.1" id="Слой_1" xmlns="http://www.w3.org/2000/svg" xmlns:xlink="http://www.w3.org/1999/xlink" x="0px" y="0px"
	 viewBox="0 0 3288 1100.3012695" style="enable-background:new 0 0 3288 1100.3012695;" xml:space="preserve">
<style type="text/css">
	.st0{fill:#1D1D1B;}
</style>
<g>
	<g>
		<g>
			<path class="st0" d="M939.5741577,150.3989563c-48.7365723,1.2269592-82.243103,26.3961639-100.5183716,75.5063782
				l-279.62677,768.5755615h-20.1036987L247.5150299,248.6193542
				c-7.9188995-19.0306091-14.0119171-33.1495361-18.8855743-42.9715881
				c-4.873642-9.8220367-11.5744629-19.6440735-20.1036682-29.4661102
				c-8.5279541-9.822052-18.2752686-16.5754242-29.8509827-20.2588501
				c-11.5744629-3.6821289-25.58638-5.5238495-42.6448059-5.5238495v-12.2785187
				c37.7711487,0,71.2776947,0.6147614,99.9105682,1.8417206c28.6328888,1.228241,48.1275177,1.8417053,58.4838715,1.8417053
				s29.8509827-0.6134644,58.4838867-1.8417053c28.6328735-1.2269592,63.3575134-1.8417206,103.5648499-1.8417206v12.2785187
				c-10.3563538,0.6134796-18.8855591,1.2269592-25.5863647,1.8417206
				c-6.7008057,0.6134644-14.6209717,1.8417053-23.150177,4.2968903c-8.5292053,2.4552002-15.230011,5.5251465-20.1036682,9.2085724
				c-4.8736572,3.6821442-9.1382751,9.2072754-12.7938232,16.5741272
				c-3.6542969,7.3668518-5.4827271,15.9606476-5.4827271,26.3961639c0,9.2085724,3.6555786,25.7826996,11.5757446,49.7249756
				l216.8770447,562.9262085L798.847168,269.490387c7.3111572-21.4857941,10.9666748-39.2881622,10.9666748-53.4071045
				c0-23.940979-8.5291748-41.1298676-24.9772949-52.1788635C768.387146,152.8541412,748.2835083,147.32901,724.524231,147.32901
				v-12.2772369c26.8057251,0,51.1740112,0.6134796,73.1048584,1.8417206
				c21.9320679,1.226944,35.9439697,1.8417053,42.6447754,1.8417053c9.1383057,0,23.1502075-0.6147614,41.4254761-1.8417053
				c18.2764893-1.228241,37.7711182-1.8417206,58.4838867-1.8417206L939.5741577,150.3989563z"/>
		</g>
		<g>
			<path class="st0" d="M1077.0095215,546.4749756c0-29.9465332-6.8105469-49.5036621-21.0480957-58.6714783
				c-14.2387695-9.1678162-35.9071045-13.4456787-65.0036011-13.4456787v-12.8336792
				c62.5266724-4.8899231,126.2911987-19.5571289,191.9125366-43.3934631v473.039978
				c0,29.9451904,6.8093262,49.5023804,20.4291992,58.6714478c13.619873,9.1665039,35.2868652,13.444397,64.3834229,13.444397
				v12.2229004c-30.3343506,0-57.572876-0.6107178-82.3356934-1.8322754
				c-24.7629395-1.2240601-43.3353271-1.8348389-55.7174072-1.8348389c-12.9997559,0-31.5722656,0.6107788-56.335083,1.8348389
				c-24.7628174,1.2215576-52.0026245,1.8322754-81.7180786,1.8322754V963.286499
				c29.0964966,0,50.7648315-4.2778931,65.0036011-13.444397c14.2375488-9.1690674,21.0480957-28.7262573,21.0480957-58.6714478
				V545.8641968L1077.0095215,546.4749756z M1112.2965088,161.4434357c19.1914063,0,35.9057617,6.7234802,49.5257568,20.1679077
				c13.619873,13.445694,20.4291992,29.3357239,20.4291992,48.2821045s-6.8093262,34.8364105-20.4291992,48.2821198
				c-13.6199951,13.4456787-29.7154541,20.1679077-48.9068604,20.1679077s-35.2869873-6.722229-48.9068604-20.1679077
				c-13.619873-13.4457092-20.4291992-29.9477692-20.4291992-48.8928833c0-18.9463806,6.8093262-34.8364105,20.4291992-48.2821045
				C1077.628418,167.5548706,1093.1051025,161.4434357,1112.2965088,161.4434357L1112.2965088,161.4434357z"/>
		</g>
		<g>
			<path class="st0" d="M1659.7233887,420.6025391c0,11.0237122,0,23.8862305-0.614502,38.5849915
				c-0.6143799,14.7000122-0.6143799,25.7237244-0.6143799,33.0737305c0,6.7379456,0,20.8246155,0.6143799,42.261261
				c0.614502,21.4367065,0.614502,37.9729614,0.614502,50.2221069h-15.3654785
				c-0.6143799-16.5362549-3.6864014-33.0737915-9.2161865-49.6099854
				c-5.5322266-16.5362549-13.5220947-31.8483582-23.9696045-46.5483704
				c-10.4476318-14.6987305-23.9671631-26.3358154-41.1757813-35.5233459
				c-17.2086182-9.1875-36.260498-14.0866699-57.1556396-14.0866699c-25.8116455,0-47.3223877,7.9620972-64.5297852,23.886261
				c-17.2072754,15.9241638-25.8116455,34.9112549-25.8116455,56.9599915c0,15.3121338,3.6865234,29.3988037,10.4475098,42.2612915
				c6.7598877,12.8612061,17.2073975,23.8862305,30.7282715,33.6858521
				c13.520874,9.7995605,26.4273682,18.375,38.7181396,25.1103516
				c12.2907715,6.7379761,28.2706299,14.7000122,47.3223877,23.8862915
				c19.0518799,9.1887817,33.1859131,16.5387573,42.4046631,22.0499878
				c40.5614014,23.2741699,70.6751709,47.1604614,90.3414307,71.6587524
				c19.6662598,24.5009155,29.4993896,54.510437,29.4993896,90.6484375c0,26.9465942-5.5296631,51.4475098-16.5916748,72.8828735
				c-11.0644531,21.4379272-25.1984863,38.5862427-43.0214844,51.4475098
				c-17.8231201,12.8612061-37.4893799,22.6621094-58.3843994,29.4000244
				c-20.8951416,6.7353516-42.4046631,9.7982788-64.5285645,9.7982788c-53.4678955,0-100.1759033-14.0853271-140.1228027-42.873291
				l-20.2806396,31.2362061H1356.125c0-12.8612061,0-28.1732788,0.6143799-45.9337158
				c0.6143799-17.7629395,0.6143799-31.2362061,0.6143799-40.4250488c0-9.1862183-0.6143799-22.6620483-1.2287598-40.4224854
				c-0.6143799-17.7629395-1.2288818-32.4603882-1.2288818-44.0974731h15.3641357
				c0,43.4854126,14.1352539,81.4570313,42.4058838,113.9200439c28.2706299,32.4603882,65.144165,48.9966431,110.6221924,48.9966431
				c26.4272461,0,51.0089111-9.1862793,73.7497559-28.1733398c22.7382813-18.9871216,33.800293-42.2612915,33.800293-69.8225098
				c0-9.7983398-1.2288818-18.9871216-3.6865234-27.5612793c-2.4602051-8.5741577-6.7611084-16.5362549-12.9077148-23.8862305
				c-6.144165-7.3500366-11.6763916-14.0879517-16.5916748-19.5991821
				c-4.9178467-5.5112305-12.293335-11.637085-22.7408447-17.760376
				c-10.4475098-6.1258545-18.4349365-11.0250244-23.9671631-14.0879517s-14.7509766-7.9620972-27.6561279-14.7000122
				c-12.9052734-6.7354126-21.5095215-11.0250244-25.8117676-13.4733276
				c-16.5928955-9.1887817-28.2705078-15.9241333-35.6447754-20.2112427
				c-7.3754883-4.2870483-17.822998-11.0250244-31.958252-20.2138062
				c-14.135376-9.1862183-24.5828857-17.760376-31.3426514-25.1104126
				c-6.7598877-7.3499756-14.135376-17.1483154-22.1252441-28.7854004
				c-7.9886475-11.637085-13.5196533-24.5008545-16.5928955-37.9741821
				c-3.0733643-13.4745483-4.302124-28.7866821-4.302124-45.322937c0-44.0987549,15.3640137-79.6220703,45.4779053-106.5699768
				c30.1151123-26.9491882,65.7598877-40.4237671,106.9356689-40.4237671c17.2086182,0,33.8015137,1.8374939,49.7813721,5.5125122
				c15.9771729,3.6749878,27.6535645,6.7366333,34.4146729,9.7995911
				c6.7611084,3.0616455,16.5942383,7.3500061,29.4993896,13.4745789l23.9697266-28.7866821L1659.7233887,420.6025391z"/>
		</g>
		<g>
			<path class="st0" d="M1802.8996582,716.7191162c0-83.4487305,28.2867432-153.4979248,85.4749756-209.5375366
				c57.1856689-56.0382996,127.9038086-84.0587463,212.7615967-84.0587463c13.5297852,0,27.671875,1.2187195,42.4311523,3.0461731
				c14.7570801,1.8274536,31.3605957,5.4823303,49.1938477,10.9634094
				c17.8308105,5.4823303,32.5900879,14.0108643,44.2731934,26.1929932s17.833252,26.8016968,17.833252,43.8561707
				c0,12.7921143-3.6911621,23.7568359-11.0683594,32.8927612c-7.3796387,9.1372681-18.447998,13.4008789-33.2072754,13.4008789
				c-12.2978516,0-22.1367188-4.8723145-30.1311035-14.0095825c-7.9943848-9.137207-11.6831055-21.3193359-11.6831055-35.9376526
				c0-4.2648926,0.6147461-8.5285339,1.2294922-13.4008789l1.8444824-12.1834106l1.2319336-4.2636108
				c0-9.7459412-7.3796387-17.6644592-22.7539063-23.7555237c-15.371582-6.0910645-31.3605957-9.1372375-47.9641113-9.1372375
				c-32.5900879,0-60.8769531,7.9185181-84.8577881,23.7568054c-23.9833984,15.8370361-43.0461426,37.1564026-56.5734863,63.9568481
				c-13.5273438,26.8016968-23.3660889,55.4308472-30.1309814,85.8861694
				c-6.7650146,30.456604-9.8387451,62.1306763-9.8387451,95.6334229c0,76.7477417,16.6036377,137.6609497,49.8084717,182.7371216
				c33.2049561,45.0736084,77.4804688,67.6116943,132.8244629,67.6116943
				c62.1064453,0,115.6035156-23.7554932,159.8791504-71.8778687l9.2241211,8.5297852
				c-25.8276367,31.0653076-56.5734863,54.8208618-91.6252441,70.6578979
				c-35.0490723,15.8370361-71.9450684,23.7555542-110.6853027,23.7555542
				c-76.2510986,0-139.5869141-24.3642578-190.0102539-73.0953369
				c-50.4233398-48.7285767-75.6362305-115.7341309-75.6362305-200.4003296L1802.8996582,716.7191162z"/>
		</g>
		<g>
			<path class="st0" d="M2828.1010742,890.9289551c-57.9606934,66.3942871-128.1228027,99.8970337-210.4892578,99.8970337
				c-34.7749023,0-68.3325195-6.0922852-100.6677246-18.2744751c-32.3374023-12.1821289-61.6203613-29.8478394-87.855957-52.3834229
				c-26.2355957-22.5380859-46.9790039-51.7772217-62.2329102-87.1062012
				c-15.2512207-35.3289185-23.1833496-74.3127441-23.1833496-116.9514771
				c0-52.3834229,12.2016602-100.5057983,36.6074219-144.9707031
				c24.4030762-44.4661865,58.5705566-79.7951355,101.8874512-105.9868469
				c43.3193359-26.1929932,90.9082031-39.5925903,142.7668457-39.5925903
				c59.7907715,0,112.2592773,18.2732239,156.798584,55.4295959
				c44.5390625,37.1564331,68.9423828,84.0587769,72.6020508,140.7070923c0,13.4020996-2.4396973,20.100647-7.9294434,20.100647
				h-378.2695313c-3.6621094,23.7555542-5.4919434,48.1223145-5.4919434,73.0953369
				c0,77.3589478,17.0837402,137.6608887,51.861084,180.9083862
				c34.7749023,43.2474365,80.5339355,65.1768188,137.2749023,65.1768188c20.7434082,0,40.2668457-2.437439,58.5705566-7.3098145
				c18.3037109-4.8723145,34.7749023-12.1821289,48.8088379-21.3181152
				c14.0314941-9.1384888,25.623291-17.0570068,34.1650391-24.3642578
				c8.5419922-7.3097534,17.6936035-15.8395386,26.845459-25.5842285L2828.1010742,890.9289551z M2725.6013184,621.6969604
				c12.8115234,0,19.5234375-6.7010498,19.5234375-19.4919434c0-17.6644897-1.829834-35.3289185-5.489502-52.3847046
				c-3.6623535-17.0557251-9.7617188-34.1102295-18.3037109-51.1659546
				c-8.541748-17.0557556-21.3532715-30.456604-38.4370117-40.8113098
				c-17.0837402-10.3546753-37.2172852-15.228302-60.4006348-15.228302c-21.355957,0-40.8793945,4.2636414-57.9606934,12.7921448
				c-17.0837402,8.5272522-30.5053711,18.2731934-40.8796387,29.8466187
				c-10.371582,11.5733948-19.5234375,26.1929626-27.4528809,43.8574524
				c-7.9318848,17.6644897-13.4240723,32.8927612-17.0837402,46.2923584
				c-3.659668,13.4008789-6.7119141,28.6291504-9.7617188,45.6848755L2725.6013184,621.6969604z"/>
		</g>
	</g>
	<path class="st0" d="M3066.4099121,264.0123596l-26.4987793-45.4582367h-8.2521973v45.4582367h-16.5092773V159.8211212h41.7294922
		c7.8496094,0,15.2255859,3.0538025,20.7678223,8.5985565c5.5473633,5.5447388,8.6010742,12.9207458,8.6010742,20.7679443
		c0,14.1152802-10.0527344,26.2541199-23.9057617,28.8647461l-3.6293945,0.6825867l26.3864746,45.2774048H3066.4099121z
		 M3031.6589355,202.0447083h26.0019531c3.4384766,0,6.6706543-1.3371582,9.0952148-3.7618713
		c2.4272461-2.4298096,3.7644043-5.661911,3.7644043-9.0952148c0-7.07547-5.7687988-12.831604-12.8596191-12.831604h-26.0019531
		V202.0447083z"/>
	<path class="st0" d="M3045.8735352,105.8203735c-58.5012207,0-106.0961914,47.5951233-106.0961914,106.0963593
		s47.5949707,106.0963593,106.0961914,106.0963593s106.0964355-47.5951233,106.0964355-106.0963593
		S3104.3747559,105.8203735,3045.8735352,105.8203735z M3045.8735352,302.364563
		c-49.8720703,0-90.4477539-40.5757141-90.4477539-90.4478302s40.5756836-90.4478073,90.4477539-90.4478073
		c49.8723145,0,90.447998,40.5756912,90.447998,90.4478073S3095.7458496,302.364563,3045.8735352,302.364563z"/>
</g>
</svg>
