<?xml version="1.0" encoding="utf-8"?>
<!-- Generator: Adobe Illustrator 19.0.1, SVG Export Plug-In . SVG Version: 6.00 Build 0)  -->
<svg version="1.1" id="Слой_1" xmlns="http://www.w3.org/2000/svg" xmlns:xlink="http://www.w3.org/1999/xlink" x="0px" y="0px"
	 viewBox="0 0 3298.1728516 3255.2155762" style="enable-background:new 0 0 3298.1728516 3255.2155762;" xml:space="preserve">
<style type="text/css">
	.st0{fill:#FFFFFF;}
</style>
<g>
	<g>
		<path class="st0" d="M554.5609131,1605.7028809l149.7029419-13.1405029
			c7.0834961,60.237915,23.5857544,109.6495361,49.4938354,148.2521973
			c25.8950806,38.6027832,66.1212158,69.81604,120.6610718,93.6312256
			c54.53125,23.8195801,115.8826294,35.7293701,184.0629272,35.7293701c60.5355225,0,113.9790039-9.0321045,160.3389893-27.1047363
			c46.3469238-18.0683594,80.8449707-42.8370361,103.4810791-74.3320313
			c22.6274414-31.4776611,33.9498291-65.8330078,33.9498291-103.0792236c0-37.7792969-10.916626-70.7651367-32.7196045-98.9707031
			c-21.8203125-28.1967773-57.8161621-51.873291-107.9832764-71.046875
			c-32.1843262-12.59021-103.355957-32.1623535-213.5105591-58.7253418
			c-110.171814-26.5563965-187.3348389-51.6068115-231.5106201-75.1575928
			c-57.2636108-30.1081543-99.9415283-67.4799805-128.0251465-112.1135254
			c-28.0965576-44.6225586-42.1296997-94.5845947-42.1296997-149.8969727
			c0-60.7796631,17.1799316-117.5807495,51.539856-170.4314575
			c34.3555298-52.8355103,84.5270386-92.9399414,150.5187988-120.3262939
			c65.9830933-27.3734131,139.3388672-41.0687866,220.0544434-41.0687866
			c88.8867798,0,167.2929077,14.3736572,235.1925659,43.1209106s120.112915,71.046875,156.6569824,126.8988037
			c36.5311279,55.8519287,56.1629639,119.09552,58.8996582,189.7327271l-152.1591797,11.4980469
			c-8.1798096-76.102417-35.866333-133.5969238-83.0291748-172.4835205
			c-47.1800537-38.8713989-116.8538818-58.3157959-209.0126953-58.3157959
			c-95.9961548,0-165.937561,17.6587524-209.8327637,52.9785156
			c-43.9038086,35.3175659-65.8535767,77.8988037-65.8535767,127.7200928c0,43.2617188,15.5439453,78.8480225,46.631897,106.7739258
			c30.5354614,27.9260254,110.2927246,56.5454102,239.2803955,85.8322754
			c128.9705811,29.2976074,217.4602051,54.9006348,265.4561768,76.7958984
			c69.8032227,32.3140869,121.3387451,73.2419434,154.6109619,122.7923584
			c33.2591553,49.5633545,49.8995361,106.6503906,49.8995361,171.2526855
			c0,64.0648193-18.2763672,124.4327393-54.8074951,181.1081543
			c-36.5440674,56.6710205-89.0379639,100.7562256-157.4727783,132.2382813
			c-68.447876,31.4819336-145.4857178,47.2272949-231.1005859,47.2272949
			c-108.5315552,0-199.477356-15.8883057-272.8201904-47.6390381
			c-73.3557739-31.7507324-130.8913574-79.5284424-172.6110229-143.324585
			C578.6948242,1758.3455811,556.7364502,1686.1934814,554.5609131,1605.7028809z"/>
		<path class="st0" d="M2583.1799316,1570.385376l160.4321289,40.2452393
			c-33.6347656,130.8774414-94.1447754,230.6715088-181.5170898,299.3824463
			c-87.3896484,68.7237549-194.2104492,103.0792236-320.4494629,103.0792236
			c-130.6591797,0-236.9257813-26.4112549-318.7955322-79.2597656
			c-81.869873-52.8354492-144.1776123-129.3647461-186.8929443-229.5706787
			c-42.732666-100.2015381-64.0924072-207.8011475-64.0924072-322.7901611
			c0-125.3840332,24.1131592-234.7648926,72.3614502-328.1296387
			c48.2352295-93.3516235,116.8746338-164.2706299,205.9138184-212.730957
			c89.026123-48.4581909,187.0236816-72.6894531,293.9841309-72.6894531
			c121.2819824,0,223.2810059,30.6737061,305.9799805,91.992981
			c82.6943359,61.3300781,140.2983398,147.5718384,172.833252,258.7252808l-157.9492188,36.9602051
			c-28.1188965-87.6026611-68.9228516-151.3988037-122.3901367-191.3753662
			c-53.4802246-39.963562-120.7363281-59.958374-201.7814941-59.958374
			c-93.1757813,0-171.0529785,22.1769409-233.6137695,66.5286865
			c-62.5783691,44.3538818-106.550293,103.90271-131.902832,178.6442871
			c-25.3656006,74.7437744-38.0418701,151.8212891-38.0418701,231.2110596
			c0,102.401001,15.0151367,191.7849121,45.0716553,268.1712646
			c30.043335,76.3863525,76.7644043,133.4691162,140.1717529,171.2526855
			c63.3900146,37.7835693,132.0294189,56.6711426,205.9136963,56.6711426
			c89.8552246,0,165.9345703-25.730835,228.2424316-77.2054443
			C2518.9477539,1748.0783691,2561.1262207,1671.6920166,2583.1799316,1570.385376z"/>
	</g>
	<g>
		<polygon class="st0" points="807.1973877,2768.796875 855.7389526,2768.796875 831.2277222,2702.3688965 		"/>
		<path class="st0" d="M206.6507416,203.9592133v2847.2971191h2884.871582V203.9592133H206.6507416z M515.7111816,2816.2988281
			c-5.6672058,8.953125-13.674469,15.6069336-24.0301819,19.9611816
			c-10.3558655,4.354248-23.2597961,6.5356445-38.7119446,6.5356445c-22.4890442,0-39.7635498-5.230957-51.8155212-15.692627
			c-12.0558777-10.4577637-19.2558899-25.7019043-21.6002197-45.7285156l34.9486389-3.4206543
			c2.1037292,11.8071289,6.3683777,20.4748535,12.802063,26.0117188c6.4335327,5.5366211,15.1095276,8.3007813,26.0320435,8.3007813
			c11.5667114,0,20.2834778-2.458252,26.1503296-7.3876953c5.862793-4.9250488,8.7983398-10.6818848,8.7983398-17.2785645
			c0-4.2319336-1.2353821-7.8317871-3.7020569-10.8041992c-2.4705505-2.972168-6.7759705-5.5568848-12.9242249-7.7546387
			c-4.2076416-1.463623-13.7927551-4.0688477-28.7596436-7.8156738
			c-19.2560425-4.8027344-32.7674255-10.7023926-40.5342712-17.7026367
			c-10.9184875-9.8500977-16.3817749-21.8571777-16.3817749-36.0249023c0-9.1164551,2.5685425-17.6416016,7.70578-25.5795898
			c5.1370544-7.9382324,12.5409851-13.9802246,22.2078552-18.1347656c9.666687-4.1506348,21.3392944-6.2258301,35.0097046-6.2258301
			c22.3302002,0,39.1358032,4.9250488,50.4211121,14.7753906c11.2895508,9.8500977,17.2134399,22.9987793,17.7802734,39.4416504
			l-35.9190674,1.5859375c-1.5411072-9.197998-4.8353577-15.8149414-9.8910522-19.8430176
			c-5.0595703-4.0283203-12.6430054-6.0424805-22.7540283-6.0424805c-10.437439,0-18.6078186,2.1569824-24.5154724,6.470459
			c-3.7998352,2.7683105-5.6998291,6.4702148-5.6998291,11.1101074c0,4.2358398,1.7776794,7.8564453,5.3368835,10.8693848
			c4.5296326,3.8283691,15.5337219,7.8156738,33.0080566,11.9660645
			c17.4743042,4.1503906,30.3987122,8.4477539,38.7730103,12.8837891
			c8.3743286,4.435791,14.9260864,10.498291,19.6596069,18.1918945c4.7335205,7.6933594,7.0981445,17.1970215,7.0981445,28.5107422
			C524.2037354,2797.7358398,521.3702393,2807.3413086,515.7111816,2816.2988281z M725.7741699,2839.6196289H692.399292
			v-140.9118652l-35.3114014,140.9118652h-34.5859375l-35.1932983-140.9118652v140.9118652h-33.3707886v-179.0080566h53.7601929
			l32.2782593,122.104248l31.9152832-122.104248h53.8825684V2839.6196289z M882.8026733,2839.6196289l-15.5337524-40.6606445
			h-71.1121826l-14.6856689,40.6606445h-38.1043091l69.2938843-179.0080566h37.9819946l71.2347412,179.0080566H882.8026733z
			 M1058.0352783,2839.6196289l-25.9709473-38.9523926c-9.2224121-13.9191895-15.5337524-22.6889648-18.9298706-26.3134766
			c-3.3963013-3.6203613-7.0003662-6.1074219-10.8002319-7.4489746c-3.803894-1.3452148-9.8297729-2.013916-18.0817261-2.013916
			h-7.2817383v74.7287598h-35.9190674v-179.0080566h75.6011963c19.0114136,0,32.824646,1.6064453,41.4434204,4.8232422
			c8.6149902,3.2165527,15.5133057,8.9328613,20.6912842,17.15625c5.1738281,8.2233887,7.7667236,17.6252441,7.7667236,28.2053223
			c0,13.4296875-3.9261475,24.5234375-11.7745361,33.2729492c-7.8483887,8.753418-19.5780029,14.2697754-35.189209,16.5488281
			c7.7668457,4.5581055,14.1759033,9.5646973,19.2314453,15.0158691
			c5.0556641,5.4550781,11.8724365,15.1420898,20.4506836,29.0612793l21.7227783,34.9243164H1058.0352783z
			 M1249.0460205,2690.8920898h-52.6676025v148.7275391h-35.9230957v-148.7275391h-52.7857666v-30.2805176h141.3764648V2690.8920898
			z M1463.2921143,2828.4482422c-12.4185791,9.4833984-28.1724854,14.2250977-47.2653809,14.2250977
			c-23.6225586,0-43.041748-8.121582-58.2492676-24.3605957c-15.2115479-16.2429199-22.8153076-38.442627-22.8153076-66.611084
			c0-29.7954102,7.6445313-52.9328613,22.9376221-69.4162598c15.2890625-16.4836426,35.3931885-24.7275391,60.3122559-24.7275391
			c21.7591553,0,39.4373779,6.4702148,53.0303955,19.4150391c8.0889893,7.6525879,14.1556396,18.6403809,18.2042236,32.9672852
			l-35.5562744,8.5495605c-2.1077881-9.279541-6.494751-16.605957-13.1688232-21.9794922
			c-6.6741943-5.3735352-14.7875977-8.0603027-24.3321533-8.0603027c-13.1850586,0-23.8874512,4.7617188-32.0946045,14.2858887
			c-8.21521,9.5241699-12.3208008,24.9516602-12.3208008,46.2790527c0,22.6315918,4.0443115,38.7524414,12.1373291,48.3540039
			c8.0888672,9.6096191,18.607666,14.4084473,31.5523682,14.4084473c9.5445557,0,17.7557373-3.0498047,24.6337891-9.1572266
			c6.8739014-6.1032715,11.8114014-15.7089844,14.8039551-28.8166504l34.8303223,11.1140137
			C1484.5908203,2804.4506836,1475.7109375,2818.9650879,1463.2921143,2828.4482422z M1662.6162109,2818.1904297
			c-15.6151123,16.3205566-36.4898682,24.4829102-62.619873,24.4829102c-26.4520264,0-47.489624-8.121582-63.1008301-24.3605957
			c-15.6151123-16.2429199-23.4227295-38.6057129-23.4227295-67.1005859c0-18.232666,2.7111816-33.5378418,8.1296387-45.9118652
			c4.0445557-9.1162109,9.5688477-17.2946777,16.5651855-24.5439453
			c6.9963379-7.2409668,14.6651611-12.6142578,22.9986572-16.1164551
			c11.081665-4.7214355,23.8632813-7.0820313,38.3449707-7.0820313c26.2115479,0,47.1881104,8.1826172,62.9215088,24.5439453
			s23.6020508,39.1154785,23.6020508,68.2583008C1686.03479,2779.2585449,1678.227417,2801.869873,1662.6162109,2818.1904297z
			 M1840.2746582,2839.6196289h-125.2354736v-177.5441895h35.9189453v147.3820801h89.3165283V2839.6196289z
			 M1992.088623,2839.6196289h-125.2355957v-177.5441895h35.9190674v147.3820801h89.3165283V2839.6196289z
			 M2153.0024414,2839.6196289h-135.3099365v-179.0080566h131.90979v30.2805176h-95.9907227v39.6860352h89.3164063v30.1582031
			h-89.3164063v48.7211914h99.3908691V2839.6196289z M2305.480957,2828.4482422
			c-12.4189453,9.4833984-28.1726074,14.2250977-47.265625,14.2250977c-23.6225586,0-43.0415039-8.121582-58.2490234-24.3605957
			c-15.2116699-16.2429199-22.8154297-38.442627-22.8154297-66.611084c0-29.7954102,7.6445313-52.9328613,22.9377441-69.4162598
			c15.2890625-16.4836426,35.3930664-24.7275391,60.3120117-24.7275391c21.7595215,0,39.4377441,6.4702148,53.0305176,19.4150391
			c8.0888672,7.6525879,14.1555176,18.6403809,18.2041016,32.9672852l-35.5561523,8.5495605
			c-2.1079102-9.279541-6.4946289-16.605957-13.1689453-21.9794922c-6.6740723-5.3735352-14.7875977-8.0603027-24.3317871-8.0603027
			c-13.1853027,0-23.8876953,4.7617188-32.0947266,14.2858887c-8.2155762,9.5241699-12.3210449,24.9516602-12.3210449,46.2790527
			c0,22.6315918,4.0444336,38.7524414,12.1374512,48.3540039c8.0888672,9.6096191,18.6079102,14.4084473,31.5524902,14.4084473
			c9.5444336,0,17.7556152-3.0498047,24.6335449-9.1572266c6.8740234-6.1032715,11.8112793-15.7089844,14.8039551-28.8166504
			l34.8303223,11.1140137C2326.779541,2804.4506836,2317.8996582,2818.9650879,2305.480957,2828.4482422z
			 M2491.5788574,2690.8920898h-52.6677246v148.7275391h-35.9230957v-148.7275391h-52.7856445v-30.2805176h141.3764648V2690.8920898
			z M2549.5793457,2839.6196289h-35.9189453v-179.0080566h35.9189453V2839.6196289z M2725.6682129,2818.1904297
			c-15.6152344,16.3205566-36.4897461,24.4829102-62.619873,24.4829102c-26.4519043,0-47.4897461-8.121582-63.1008301-24.3605957
			c-15.6152344-16.2429199-23.4228516-38.6057129-23.4228516-67.1005859c0-18.232666,2.7111816-33.5378418,8.1296387-45.9118652
			c4.0444336-9.1162109,9.5690918-17.2946777,16.5651855-24.5439453
			c6.9963379-7.2409668,14.6652832-12.6142578,22.9987793-16.1164551
			c11.081543-4.7214355,23.8630371-7.0820313,38.3447266-7.0820313c26.2116699,0,47.1882324,8.1826172,62.9216309,24.5439453
			s23.6022949,39.1154785,23.6022949,68.2583008C2749.0869141,2779.2585449,2741.2790527,2801.869873,2725.6682129,2818.1904297z
			 M2918.6196289,2839.6196289h-36.0454102l-71.7155762-116.7348633v116.7348633h-33.375v-179.0080566h34.9487305
			l72.8122559,119.5397949v-119.5397949h33.375V2839.6196289z M2924.121582,2587.8398438H374.0513611V315.2905884H2924.121582
			V2587.8398438z"/>
		<path class="st0" d="M2662.9301758,2688.4499512c-14.8081055,0-26.7416992,5.1086426-35.8007813,15.3256836
			c-9.0634766,10.217041-13.5930176,25.6245117-13.5930176,46.2177734c0,20.2709961,4.6518555,35.6376953,13.9558105,46.0952148
			c9.3037109,10.4616699,21.1152344,15.6887207,35.4379883,15.6887207c14.3186035,0,26.0686035-5.1862793,35.2502441-15.5664063
			c9.1816406-10.3803711,13.7724609-25.9465332,13.7724609-46.7070313c0-20.5117188-4.4685059-35.8168945-13.4094238-45.9118652
			C2689.6064453,2693.4973145,2677.7338867,2688.4499512,2662.9301758,2688.4499512z"/>
		<path class="st0" d="M1045.8978271,2726.5500488c2.4299316-3.5837402,3.6407471-8.0603027,3.6407471-13.434082
			c0-6.0217285-1.5981445-10.885498-4.7905273-14.5915527c-3.1964111-3.7021484-7.7058105-6.0424805-13.5318604-7.0209961
			c-2.9110107-0.4074707-11.6522827-0.6113281-26.2113647-0.6113281h-28.0340576v45.4265137h26.5783691
			c17.2298584,0,27.9893188-0.7338867,32.2782593-2.201416
			C1040.1123047,2732.6535645,1043.4719238,2730.1298828,1045.8978271,2726.5500488z"/>
		<path class="st0" d="M1599.8782959,2688.4499512c-14.8079834,0-26.7415771,5.1086426-35.8007813,15.3256836
			c-9.0634766,10.217041-13.5931396,25.6245117-13.5931396,46.2177734c0,20.2709961,4.6519775,35.6376953,13.9559326,46.0952148
			c9.303833,10.4616699,21.1151123,15.6887207,35.4379883,15.6887207c14.3186035,0,26.0687256-5.1862793,35.2503662-15.5664063
			c9.1815186-10.3803711,13.7722168-25.9465332,13.7722168-46.7070313c0-20.5117188-4.4683838-35.8168945-13.4095459-45.9118652
			C1626.5544434,2693.4973145,1614.6820068,2688.4499512,1599.8782959,2688.4499512z"/>
	</g>
</g>
</svg>
