<svg width="27" height="26" viewBox="0 0 27 26" fill="none" xmlns="http://www.w3.org/2000/svg">
<path fill-rule="evenodd" clip-rule="evenodd" d="M1.48356 0.704254C1.81955 0.36054 2.27518 0.167452 2.75027 0.167452C3.22535 0.167452 3.68099 0.36054 4.01698 0.704254L13.5003 10.4086L22.9836 0.704254C23.1488 0.529143 23.3465 0.389469 23.5651 0.293381C23.7837 0.197293 24.0188 0.146716 24.2567 0.1446C24.4946 0.142485 24.7305 0.188873 24.9507 0.281059C25.1709 0.373245 25.371 0.509383 25.5392 0.681528C25.7074 0.853673 25.8404 1.05838 25.9305 1.2837C26.0206 1.50902 26.066 1.75044 26.0639 1.99388C26.0618 2.23733 26.0124 2.47791 25.9185 2.70159C25.8246 2.92528 25.6881 3.12758 25.517 3.29671L16.0337 13.001L25.517 22.7053C25.8433 23.0511 26.0239 23.5142 26.0199 23.9949C26.0158 24.4757 25.8273 24.9355 25.4952 25.2754C25.163 25.6154 24.7136 25.8082 24.2438 25.8124C23.7741 25.8165 23.3215 25.6317 22.9836 25.2978L13.5003 15.5935L4.01698 25.2978C3.67906 25.6317 3.22649 25.8165 2.75672 25.8124C2.28695 25.8082 1.83757 25.6154 1.50539 25.2754C1.1732 24.9355 0.984767 24.4757 0.980685 23.9949C0.976603 23.5142 1.15719 23.0511 1.48356 22.7053L10.9669 13.001L1.48356 3.29671C1.14767 2.95289 0.958984 2.48664 0.958984 2.00048C0.958984 1.51432 1.14767 1.04807 1.48356 0.704254Z" fill="#868686"/>
</svg>
